<?xml version="1.0" encoding="UTF-8" standalone="no"?>
<!-- Created with Inkscape (http://www.inkscape.org/) -->

<svg
   xmlns:dc="http://purl.org/dc/elements/1.1/"
   xmlns:cc="http://creativecommons.org/ns#"
   xmlns:rdf="http://www.w3.org/1999/02/22-rdf-syntax-ns#"
   xmlns:svg="http://www.w3.org/2000/svg"
   xmlns="http://www.w3.org/2000/svg"
   xmlns:sodipodi="http://sodipodi.sourceforge.net/DTD/sodipodi-0.dtd"
   xmlns:inkscape="http://www.inkscape.org/namespaces/inkscape"
   width="49.807575mm"
   height="52.306679mm"
   viewBox="0 0 176.48353 185.33862"
   id="svg2"
   version="1.1"
   inkscape:version="0.91 r13725"
   sodipodi:docname="snowflakewhite3.svg">
  <defs
     id="defs4" />
  <sodipodi:namedview
     id="base"
     pagecolor="#ffffff"
     bordercolor="#666666"
     borderopacity="1.0"
     inkscape:pageopacity="0"
     inkscape:pageshadow="2"
     inkscape:zoom="1.5326361"
     inkscape:cx="108.84259"
     inkscape:cy="121.15238"
     inkscape:document-units="px"
     inkscape:current-layer="layer1"
     showgrid="false"
     inkscape:window-width="1007"
     inkscape:window-height="808"
     inkscape:window-x="546"
     inkscape:window-y="88"
     inkscape:window-maximized="0"
     inkscape:snap-page="true"
     inkscape:snap-grids="false"
     fit-margin-top="0"
     fit-margin-left="0"
     fit-margin-right="0"
     fit-margin-bottom="0" />
  <metadata
     id="metadata7">
    <rdf:RDF>
      <cc:Work
         rdf:about="">
        <dc:format>image/svg+xml</dc:format>
        <dc:type
           rdf:resource="http://purl.org/dc/dcmitype/StillImage" />
        <dc:title></dc:title>
      </cc:Work>
    </rdf:RDF>
  </metadata>
  <g
     inkscape:label="Layer 1"
     inkscape:groupmode="layer"
     id="layer1"
     transform="translate(-82.863773,-55.65458)">
    <rect
       y="-2.3436666"
       x="11.092001"
       height="280.60843"
       width="303.50076"
       id="rect3374"
       style="fill:#ffffff" />
    <g
       transform="translate(67.064903,43.09068)"
       id="g2824">
      <path
         inkscape:transform-center-y="56.67138"
         inkscape:transform-center-x="9.349818"
         sodipodi:nodetypes="ccccccccccccccccccc"
         id="path3166"
         d="m 77.534797,134.83442 10.769042,6.49121 0.435448,12.6215 -13.679759,6.92796 4.628042,10.60467 16.302348,-9.04929 0.415652,14.66096 -13.297859,8.50715 5.6545,8.77135 13.520939,-9.41992 12.43011,8.71212 6.07891,-8.75572 -11.51873,-7.42236 -0.0832,-14.4301 14.35096,8.07467 5.55865,-8.95267 -12.3807,-7.36377 0.51122,-12.21063 10.93083,-6.04416"
         style="fill:#ffffff;fill-rule:evenodd;stroke:#87cdde;stroke-width:5;stroke-linecap:butt;stroke-linejoin:miter;stroke-miterlimit:4;stroke-dasharray:none;stroke-opacity:1"
         inkscape:connector-curvature="0" />
      <path
         sodipodi:type="star"
         style="fill:#ffffff;fill-opacity:1;stroke:none"
         id="path3178"
         sodipodi:sides="6"
         sodipodi:cx="101.51237"
         sodipodi:cy="103.42049"
         sodipodi:r1="41.66539"
         sodipodi:r2="33.447243"
         sodipodi:arg1="1.7178747"
         sodipodi:arg2="2.2414734"
         inkscape:flatsided="true"
         inkscape:rounded="0"
         inkscape:randomized="0"
         d="M 95.406359,144.63603 62.765652,118.7403 68.87166,77.524755 l 38.74672,-15.319817 32.6407,25.895732 -6.10601,41.21555 z"
         transform="matrix(0.984107,-0.177574,0.177574,0.984107,-14.3311,21.6652)" />
      <path
         style="fill:#ffffff;fill-rule:evenodd;stroke:#87cdde;stroke-width:5;stroke-linecap:butt;stroke-linejoin:miter;stroke-miterlimit:4;stroke-dasharray:none;stroke-opacity:1"
         d="m 130.54647,75.632012 -10.76904,-6.491215 -0.43545,-12.621496 13.67976,-6.927962 -4.62804,-10.604667 -16.30235,9.049285 -0.41565,-14.660956 13.29786,-8.507151 -5.6545,-8.771351 -13.52094,9.419928 -12.430106,-8.712117 -6.078926,8.755711 11.518747,7.422356 0.08316,14.430111 -14.350964,-8.074672 -5.558654,8.952672 12.380697,7.363773 -0.323434,12.176747 -9.905793,5.27751"
         id="path3160"
         sodipodi:nodetypes="ccccccccccccccccccc"
         inkscape:transform-center-x="-9.3498233"
         inkscape:transform-center-y="-56.671378"
         inkscape:connector-curvature="0" />
      <path
         inkscape:transform-center-y="-34.481042"
         inkscape:transform-center-x="39.943696"
         sodipodi:nodetypes="ccccccccccccccccccc"
         id="path3170"
         d="m 91.658161,67.477888 -11.006079,6.08066 -11.14826,-5.933648 0.840089,-15.310994 -11.497928,-1.294335 -0.31427,18.642895 -12.904584,-6.97052 -0.718485,-15.769853 -10.423455,0.51126 1.397416,16.419439 -13.759964,6.408732 4.543211,9.642353 12.187322,-6.264336 12.538422,7.143031 -14.168353,8.390961 4.973914,9.290268 12.567563,-7.040114 10.64215,6.515731 -0.416078,12.288062"
         style="fill:#ffffff;fill-rule:evenodd;stroke:#87cdde;stroke-width:5;stroke-linecap:butt;stroke-linejoin:miter;stroke-miterlimit:4;stroke-dasharray:none;stroke-opacity:1"
         inkscape:connector-curvature="0" />
      <path
         style="fill:#ffffff;fill-rule:evenodd;stroke:#87cdde;stroke-width:5;stroke-linecap:butt;stroke-linejoin:miter;stroke-miterlimit:4;stroke-dasharray:none;stroke-opacity:1"
         d="m 116.42311,142.98855 11.00608,-6.08066 11.14826,5.93364 -0.84009,15.311 11.49793,1.29433 0.31427,-18.64289 12.90458,6.97052 0.71848,15.76985 10.42346,-0.51126 -1.39742,-16.41943 13.75997,-6.40874 -4.54321,-9.64236 -12.18733,6.26435 -12.53842,-7.14304 14.16836,-8.39096 -4.97392,-9.29027 -12.56756,7.04011 -10.45437,-6.5496 0.31443,-12.851411"
         id="path3164"
         sodipodi:nodetypes="ccccccccccccccccccc"
         inkscape:transform-center-x="-39.943697"
         inkscape:transform-center-y="34.48104"
         inkscape:connector-curvature="0" />
      <path
         style="fill:none;stroke:#87cdde;stroke-width:6;stroke-linecap:round;stroke-linejoin:miter;stroke-miterlimit:4;stroke-dasharray:none;stroke-opacity:1"
         d="M 63.542162,82.002484 145.77235,131.53763"
         id="path3172"
         inkscape:connector-curvature="0" />
      <path
         inkscape:transform-center-y="-13.956972"
         inkscape:transform-center-x="-54.141652"
         sodipodi:nodetypes="ccccccccccccccccccc"
         id="path3162"
         d="m 142.92895,113.38735 0.23703,-12.57188 10.71282,-6.687851 12.83967,8.383041 6.86989,-9.310337 -15.98809,-9.593609 12.48893,-7.690446 14.01634,7.262708 4.76897,-9.282611 -14.91836,-6.999515 1.32986,-15.120848 -10.62214,-0.886648 -0.66858,13.686707 -12.45526,7.287074 -0.1826,-16.465636 -10.53257,-0.337601 -0.18687,14.403885 -11.37502,5.541005 -10.20696,-6.68722"
         style="fill:#ffffff;fill-rule:evenodd;stroke:#87cdde;stroke-width:5;stroke-linecap:butt;stroke-linejoin:miter;stroke-miterlimit:4;stroke-dasharray:none;stroke-opacity:1"
         inkscape:connector-curvature="0" />
      <path
         style="fill:none;stroke:#87cdde;stroke-width:6;stroke-linecap:round;stroke-linejoin:miter;stroke-miterlimit:4;stroke-dasharray:none;stroke-opacity:1"
         d="m 105.11659,56.662473 -2.62421,99.359547"
         id="path3158"
         inkscape:connector-curvature="0" />
      <path
         style="fill:#ffffff;fill-rule:evenodd;stroke:#87cdde;stroke-width:5;stroke-linecap:butt;stroke-linejoin:miter;stroke-miterlimit:4;stroke-dasharray:none;stroke-opacity:1"
         d="m 65.152323,97.079089 -0.237033,12.571871 -10.71282,6.68786 -12.839666,-8.38304 -6.86989,9.31033 15.988085,9.59361 -12.48894,7.69044 -14.016336,-7.2627 -4.768961,9.28261 14.918357,6.99952 -1.329857,15.12084 10.622129,0.88665 0.668588,-13.6867 12.455256,-7.28708 0.182609,16.46563 10.532566,0.3376 0.186863,-14.40388 10.897823,-6.03658 9.985292,6.53333"
         id="path3168"
         sodipodi:nodetypes="ccccccccccccccccccc"
         inkscape:transform-center-x="54.141651"
         inkscape:transform-center-y="13.956972"
         inkscape:connector-curvature="0" />
      <path
         style="fill:none;stroke:#87cdde;stroke-width:6;stroke-linecap:round;stroke-linejoin:miter;stroke-miterlimit:4;stroke-dasharray:none;stroke-opacity:1"
         d="M 62.24842,130.70947 147.06609,82.830635"
         id="path3174"
         inkscape:connector-curvature="0" />
      <path
         sodipodi:type="star"
         style="fill:#ffffff;fill-opacity:1;stroke:#87cdde;stroke-width:6;stroke-miterlimit:4;stroke-dasharray:none;stroke-opacity:1"
         id="path3156"
         sodipodi:sides="6"
         sodipodi:cx="103.42049"
         sodipodi:cy="104.56537"
         sodipodi:r1="32.961483"
         sodipodi:r2="28.545481"
         sodipodi:arg1="0.73625743"
         sodipodi:arg2="1.2598562"
         inkscape:flatsided="true"
         inkscape:rounded="0"
         inkscape:randomized="0"
         d="M 127.84452,126.69964 96.463655,136.78434 72.039627,114.65006 78.996458,82.431093 110.37732,72.346401 134.80135,94.480677 Z"
         transform="matrix(0.984107,-0.177574,0.177574,0.984107,-16.438,21.2966)" />
      <path
         sodipodi:type="star"
         style="fill:#ffffff;fill-opacity:1;stroke:#87cdde;stroke-width:6;stroke-miterlimit:4;stroke-dasharray:none;stroke-opacity:1"
         id="path2384"
         sodipodi:sides="6"
         sodipodi:cx="103.80212"
         sodipodi:cy="105.32862"
         sodipodi:r1="19.206795"
         sodipodi:r2="16.61281"
         sodipodi:arg1="0.71509174"
         sodipodi:arg2="1.2386905"
         inkscape:flatsided="true"
         inkscape:rounded="0"
         inkscape:randomized="0"
         d="m 118.30388,117.92226 -18.15729,6.26208 -14.501768,-12.59364 3.655529,-18.855719 18.157299,-6.262077 14.50176,12.593639 z"
         transform="matrix(0.984107,-0.177574,0.177574,0.984107,-17.0332,20.1473)" />
    </g>
  </g>
</svg>
